<svg xmlns="http://www.w3.org/2000/svg" viewBox="0 0 260 272">

<defs>
<path id="lf" d="M0 0 C4 -4.2 10.6 -3.6 11.2 0.7 C10.6 5.1 4 6.6 0 5.3 C-1.4 3.4 -0.7 1.4 0 0 Z"></path>
<circle id="br" r="1.6"></circle>
</defs>
<g stroke="#8C2D19" fill="none">
<path d="M20 150 A110 110 0 0 1 240 150" stroke-width="2.6"></path>
<path d="M34 150 A96 96 0 0 1 226 150" stroke-width="1.4"></path>
<g stroke-width="1.1">
<line x1="238.3" y1="130.9" x2="224.5" y2="133.3"></line><line x1="233.4" y1="112.4" x2="220.2" y2="117.2"></line><line x1="225.3" y1="95" x2="213.1" y2="102"></line><line x1="214.3" y1="79.3" x2="203.5" y2="88.3"></line><line x1="200.7" y1="65.7" x2="191.7" y2="76.5"></line><line x1="185" y1="54.7" x2="178" y2="66.9"></line><line x1="167.6" y1="46.6" x2="162.8" y2="59.8"></line><line x1="149.1" y1="41.7" x2="146.7" y2="55.5"></line><line x1="130" y1="40" x2="130" y2="54"></line><line x1="110.9" y1="41.7" x2="113.3" y2="55.5"></line><line x1="92.4" y1="46.6" x2="97.2" y2="59.8"></line><line x1="75" y1="54.7" x2="82" y2="66.9"></line><line x1="59.3" y1="65.7" x2="68.3" y2="76.5"></line><line x1="45.7" y1="79.3" x2="56.5" y2="88.3"></line><line x1="34.7" y1="95" x2="46.9" y2="102"></line><line x1="26.6" y1="112.4" x2="39.8" y2="117.2"></line><line x1="21.7" y1="130.9" x2="35.5" y2="133.3"></line>
</g>
<rect x="127.5" y="44.5" width="5" height="5" transform="rotate(45 130 47)" stroke-width="1.2"></rect>
<g stroke-width="2.5"><line x1="14" y1="150" x2="40" y2="150"></line><line x1="220" y1="150" x2="246" y2="150"></line><line x1="14" y1="203" x2="40" y2="203"></line><line x1="220" y1="203" x2="246" y2="203"></line></g>
<g stroke-width="1"><line x1="16" y1="154" x2="38" y2="154"></line><line x1="222" y1="154" x2="244" y2="154"></line><line x1="16" y1="199" x2="38" y2="199"></line><line x1="222" y1="199" x2="244" y2="199"></line></g>
<g stroke-width="1.2"><line x1="20" y1="157" x2="20" y2="196"></line><line x1="27" y1="157" x2="27" y2="196"></line><line x1="34" y1="157" x2="34" y2="196"></line><line x1="226" y1="157" x2="226" y2="196"></line><line x1="233" y1="157" x2="233" y2="196"></line><line x1="240" y1="157" x2="240" y2="196"></line></g>


<g stroke-width="2.8">
<path d="M123 177 C122 167 121 157 124 147 C125 141 126 137 127 133"></path>
<path d="M137 177 C138 167 139 157 136 147 C135 141 134 137 133 133"></path>
</g>
<g stroke-width="2">
<path d="M123 177 C119 173 113 174 109 178"></path>
<path d="M137 177 C141 173 147 174 151 178"></path>
</g>
<g stroke-width="1">
<path d="M128 172 C127 164 127 156 128 149"></path>
<path d="M132 168 C133 161 133 155 132 150"></path>
</g>


<g stroke-width="2.4">
<path d="M127 133 C127 123 128 114 130 106"></path>
<path d="M133 133 C133 123 132 114 130 106"></path>
<path d="M130 106 C129 96 129 86 131 76 C131 72 130 69 130 66"></path>
</g>
<g stroke-width="1.6">
<path d="M130 76 C126 71 122 68 118 66 C115 65 113 66 113 68"></path>
<path d="M131 76 C135 71 139 68 143 66 C146 65 148 66 148 68"></path>
</g>


<g stroke-width="2.5">
<path d="M127 146 C112 149 96 148 82 144 C72 141 66 137 62 132"></path>
<path d="M127 134 C110 134 92 132 76 126 C66 122 59 118 54 113"></path>
</g>
<g stroke-width="2.2">
<path d="M128 121 C114 118 100 112 88 104 C79 97 72 90 68 83"></path>
<path d="M129 107 C120 102 111 95 104 86 C99 79 96 72 96 66"></path>
</g>

<g stroke-width="2.5">
<path d="M133 146 C148 149 164 148 178 144 C188 141 194 137 198 132"></path>
<path d="M133 134 C150 134 168 132 184 126 C194 122 201 118 206 113"></path>
</g>
<g stroke-width="2.2">
<path d="M132 121 C146 118 160 112 172 104 C181 97 188 90 192 83"></path>
<path d="M131 107 C140 102 149 95 156 86 C161 79 164 72 164 66"></path>
</g>


<g stroke-width="1.5">
<path d="M62 132 C59 129 59 125 62 124 C65 124 66 127 64 128"></path>
<path d="M54 113 C51 110 52 106 55 106 C58 106 58 109 56 110"></path>
<path d="M68 83 C66 79 68 76 71 77 C73 78 73 81 71 81"></path>
<path d="M96 66 C95 62 97 59 100 60 C102 61 102 64 100 64"></path>
<path d="M198 132 C201 129 201 125 198 124 C195 124 194 127 196 128"></path>
<path d="M206 113 C209 110 208 106 205 106 C202 106 202 109 204 110"></path>
<path d="M192 83 C194 79 192 76 189 77 C187 78 187 81 189 81"></path>
<path d="M164 66 C165 62 163 59 160 60 C158 61 158 64 160 64"></path>
</g>


<g stroke-width="1.6">
<path d="M78 143 C77 154 76 166 77 176"></path>
<path d="M182 143 C183 154 184 166 183 176"></path>
</g>
<g stroke-width="1.4">
<path d="M62 132 C61 146 60 162 61 176"></path>
<path d="M198 132 C199 146 200 162 199 176"></path>
<path d="M54 114 C52 132 51 156 52 176"></path>
<path d="M206 114 C208 132 209 156 208 176"></path>
</g>
<g stroke-width="1.1">
<path d="M88 128 C87 138 86 149 87 159"></path>
<path d="M172 128 C173 138 174 149 173 159"></path>
<path d="M74 98 C73 108 72 119 73 131"></path>
<path d="M186 98 C187 108 188 119 187 131"></path>
<path d="M114 138 C113 146 113 154 114 161"></path>
<path d="M146 138 C147 146 147 154 146 161"></path>
</g>

<g stroke-width="1.2">
<path d="M73 176 C75 174 76 174 77 176"></path><path d="M77 176 C78 174 80 174 81 176"></path>
<path d="M179 176 C181 174 182 174 183 176"></path><path d="M183 176 C184 174 186 174 188 176"></path>
<path d="M57 176 C59 174 60 174 61 176"></path><path d="M61 176 C62 174 64 174 65 176"></path>
<path d="M195 176 C197 174 198 174 199 176"></path><path d="M199 176 C200 174 202 174 204 176"></path>
<path d="M48 176 C50 174 51 174 52 176"></path><path d="M52 176 C53 174 55 174 56 176"></path>
<path d="M204 176 C206 174 207 174 208 176"></path><path d="M208 176 C209 174 211 174 213 176"></path>
</g>


<g stroke-width="1.2">
<path d="M108 141 C106 137 105 133 104 129"></path><path d="M152 141 C154 137 155 133 156 129"></path>
<path d="M92 132 C90 127 89 123 89 119"></path><path d="M168 132 C170 127 171 123 171 119"></path>
<path d="M112 129 C111 124 111 119 112 114"></path><path d="M148 129 C149 124 149 119 148 114"></path>
<path d="M100 110 C99 104 100 99 102 95"></path><path d="M160 110 C161 104 160 99 158 95"></path>
<path d="M118 114 C117 107 118 100 120 95"></path><path d="M142 114 C143 107 142 100 140 95"></path>
<path d="M120 95 C119 88 120 82 122 77"></path><path d="M140 95 C141 88 140 82 138 77"></path>
</g>


<g stroke-width="1.5">
<use href="#lf" transform="translate(112 68) rotate(250)"></use><use href="#lf" transform="translate(122 63) rotate(263)"></use><use href="#lf" transform="translate(130 61) rotate(270)"></use><use href="#lf" transform="translate(138 63) rotate(277)"></use><use href="#lf" transform="translate(148 68) rotate(290)"></use><use href="#lf" transform="translate(104 73) rotate(235)"></use><use href="#lf" transform="translate(156 73) rotate(305)"></use><use href="#lf" transform="translate(130 73) rotate(268)"></use>
<use href="#lf" transform="translate(120 96) rotate(215)"></use><use href="#lf" transform="translate(110 86) rotate(205)"></use><use href="#lf" transform="translate(102 77) rotate(200)"></use><use href="#lf" transform="translate(96 69) rotate(196)"></use><use href="#lf" transform="translate(106 94) rotate(250)"></use><use href="#lf" transform="translate(114 82) rotate(255)"></use>
<use href="#lf" transform="translate(140 96) rotate(325)"></use><use href="#lf" transform="translate(150 86) rotate(335)"></use><use href="#lf" transform="translate(158 77) rotate(340)"></use><use href="#lf" transform="translate(164 69) rotate(344)"></use><use href="#lf" transform="translate(154 94) rotate(290)"></use><use href="#lf" transform="translate(146 82) rotate(285)"></use>
<use href="#lf" transform="translate(114 114) rotate(196)"></use><use href="#lf" transform="translate(100 107) rotate(190)"></use><use href="#lf" transform="translate(86 99) rotate(185)"></use><use href="#lf" transform="translate(74 93) rotate(180)"></use><use href="#lf" transform="translate(68 88) rotate(174)"></use><use href="#lf" transform="translate(92 110) rotate(250)"></use><use href="#lf" transform="translate(78 104) rotate(255)"></use>
<use href="#lf" transform="translate(146 114) rotate(344)"></use><use href="#lf" transform="translate(160 107) rotate(350)"></use><use href="#lf" transform="translate(174 99) rotate(355)"></use><use href="#lf" transform="translate(186 93) rotate(0)"></use><use href="#lf" transform="translate(192 88) rotate(6)"></use><use href="#lf" transform="translate(168 110) rotate(290)"></use><use href="#lf" transform="translate(182 104) rotate(285)"></use>
<use href="#lf" transform="translate(110 131) rotate(200)"></use><use href="#lf" transform="translate(94 128) rotate(195)"></use><use href="#lf" transform="translate(78 123) rotate(190)"></use><use href="#lf" transform="translate(64 117) rotate(185)"></use><use href="#lf" transform="translate(56 112) rotate(178)"></use><use href="#lf" transform="translate(102 136) rotate(250)"></use><use href="#lf" transform="translate(86 133) rotate(255)"></use><use href="#lf" transform="translate(70 128) rotate(260)"></use>
<use href="#lf" transform="translate(150 131) rotate(340)"></use><use href="#lf" transform="translate(166 128) rotate(345)"></use><use href="#lf" transform="translate(182 123) rotate(350)"></use><use href="#lf" transform="translate(196 117) rotate(355)"></use><use href="#lf" transform="translate(204 112) rotate(2)"></use><use href="#lf" transform="translate(158 136) rotate(290)"></use><use href="#lf" transform="translate(174 133) rotate(285)"></use><use href="#lf" transform="translate(190 128) rotate(280)"></use>
<use href="#lf" transform="translate(112 148) rotate(205)"></use><use href="#lf" transform="translate(96 146) rotate(200)"></use><use href="#lf" transform="translate(80 141) rotate(195)"></use><use href="#lf" transform="translate(68 135) rotate(190)"></use><use href="#lf" transform="translate(104 152) rotate(250)"></use><use href="#lf" transform="translate(88 150) rotate(255)"></use>
<use href="#lf" transform="translate(148 148) rotate(335)"></use><use href="#lf" transform="translate(164 146) rotate(340)"></use><use href="#lf" transform="translate(180 141) rotate(345)"></use><use href="#lf" transform="translate(192 135) rotate(350)"></use><use href="#lf" transform="translate(156 152) rotate(290)"></use><use href="#lf" transform="translate(172 150) rotate(285)"></use>
</g>


<g stroke-width="1.5">
<rect x="88" y="178" width="84" height="7" rx="3.5"></rect><rect x="88" y="188.5" width="84" height="7" rx="3.5"></rect><rect x="88" y="199" width="84" height="7" rx="3.5"></rect>
</g>
<g stroke-width="0.9" stroke-dasharray="2.2 1.8">
<line x1="93" y1="180.3" x2="125" y2="180.3"></line><line x1="135" y1="180.3" x2="167" y2="180.3"></line><line x1="93" y1="182.7" x2="125" y2="182.7"></line><line x1="135" y1="182.7" x2="167" y2="182.7"></line>
<line x1="93" y1="190.8" x2="125" y2="190.8"></line><line x1="135" y1="190.8" x2="167" y2="190.8"></line><line x1="93" y1="193.2" x2="125" y2="193.2"></line><line x1="135" y1="193.2" x2="167" y2="193.2"></line>
<line x1="93" y1="201.3" x2="125" y2="201.3"></line><line x1="135" y1="201.3" x2="167" y2="201.3"></line><line x1="93" y1="203.7" x2="125" y2="203.7"></line><line x1="135" y1="203.7" x2="167" y2="203.7"></line>
</g>
<g stroke-width="1">
<rect x="128.4" y="179.9" width="3.2" height="3.2" transform="rotate(45 130 181.5)"></rect><rect x="128.4" y="190.4" width="3.2" height="3.2" transform="rotate(45 130 192)"></rect><rect x="128.4" y="200.9" width="3.2" height="3.2" transform="rotate(45 130 202.5)"></rect>
</g>
<line x1="130" y1="178" x2="130" y2="206" stroke-width="1.5"></line>
<line x1="130" y1="206" x2="126.5" y2="209.5" stroke-width="1.1"></line><line x1="130" y1="206" x2="130" y2="209.5" stroke-width="1.1"></line><line x1="130" y1="206" x2="133.5" y2="209.5" stroke-width="1.1"></line>
<line x1="24" y1="210" x2="236" y2="210" stroke-width="2"></line>
<line x1="32" y1="213.5" x2="228" y2="213.5" stroke-width="1"></line>
</g>
<g fill="#8C2D19">
<use href="#br" transform="translate(118 141)"></use><use href="#br" transform="translate(142 141)"></use><use href="#br" transform="translate(104 138)"></use><use href="#br" transform="translate(156 138)"></use><use href="#br" transform="translate(92 132)"></use><use href="#br" transform="translate(168 132)"></use><use href="#br" transform="translate(116 126)"></use><use href="#br" transform="translate(144 126)"></use><use href="#br" transform="translate(100 117)"></use><use href="#br" transform="translate(160 117)"></use><use href="#br" transform="translate(112 110)"></use><use href="#br" transform="translate(148 110)"></use><use href="#br" transform="translate(124 98)"></use><use href="#br" transform="translate(136 98)"></use><use href="#br" transform="translate(126 79)"></use><use href="#br" transform="translate(134 79)"></use>
<text x="130" y="250" text-anchor="middle" font-family="'Tiro Devanagari Hindi', serif" font-size="34">अभिलेखः</text>
</g>
</svg>